HIERARCHY
ROOT Hips
{
    OFFSET 0.000000 0.000000 0.000000
    CHANNELS 6 Xposition Yposition Zposition Zrotation Xrotation Yrotation
    JOINT Spine
    {
        OFFSET -0.000000 8.505030 0.000000
        CHANNELS 3 Zrotation Xrotation Yrotation
        JOINT Spine1
        {
            OFFSET -0.000000 25.070629 0.000000
            CHANNELS 3 Zrotation Xrotation Yrotation
            JOINT Neck
            {
                OFFSET -0.000000 24.967667 2.269788
                CHANNELS 3 Zrotation Xrotation Yrotation
                JOINT Head
                {
                    OFFSET -0.000000 14.520781 -2.074397
                    CHANNELS 3 Zrotation Xrotation Yrotation
                    End Site
                    {
                        OFFSET -0.000000 25.929966 0.000000
                    }
                }
            }
            JOINT LeftShoulder
            {
                OFFSET 4.117346 22.983784 -0.389865
                CHANNELS 3 Zrotation Xrotation Yrotation
                JOINT LeftArm
                {
                    OFFSET 11.957758 0.000000 0.000000
                    CHANNELS 3 Zrotation Xrotation Yrotation
                    JOINT LeftForeArm
                    {
                        OFFSET 31.907600 0.000000 0.000000
                        CHANNELS 3 Zrotation Xrotation Yrotation
                        JOINT LeftHand
                        {
                            OFFSET 28.601147 0.000000 0.000000
                            CHANNELS 3 Zrotation Xrotation Yrotation
                            End Site
                            {
                                OFFSET 15.557981 0.000000 0.000000
                            }
                        }
                    }
                }
            }
            JOINT RightShoulder
            {
                OFFSET -4.061940 22.983784 -0.389865
                CHANNELS 3 Zrotation Xrotation Yrotation
                JOINT RightArm
                {
                    OFFSET -11.957758 0.000000 0.000000
                    CHANNELS 3 Zrotation Xrotation Yrotation
                    JOINT RightForeArm
                    {
                        OFFSET -31.907600 0.000000 0.000000
                        CHANNELS 3 Zrotation Xrotation Yrotation
                        JOINT RightHand
                        {
                            OFFSET -28.601147 0.000000 0.000000
                            CHANNELS 3 Zrotation Xrotation Yrotation
                            End Site
                            {
                                OFFSET -15.557981 0.000000 0.000000
                            }
                        }
                    }
                }
            }
        }
    }
    JOINT LeftUpLeg
    {
        OFFSET 10.371986 0.000000 0.000000
        CHANNELS 3 Zrotation Xrotation Yrotation
        JOINT LeftLeg
        {
            OFFSET -0.000000 -42.486427 0.000000
            CHANNELS 3 Zrotation Xrotation Yrotation
            JOINT LeftFoot
            {
                OFFSET -0.000000 -48.322342 0.000000
                CHANNELS 3 Zrotation Xrotation Yrotation
                JOINT LeftToeBase
                {
                    OFFSET -0.000000 -6.741791 15.557981
                    CHANNELS 3 Zrotation Xrotation Yrotation
                    End Site
                    {
                        OFFSET -0.000000 0.000000 4.148795
                    }
                }
            }
        }
    }
    JOINT RightUpLeg
    {
        OFFSET -10.371986 0.000000 0.000000
        CHANNELS 3 Zrotation Xrotation Yrotation
        JOINT RightLeg
        {
            OFFSET -0.000000 -42.486427 0.000000
            CHANNELS 3 Zrotation Xrotation Yrotation
            JOINT RightFoot
            {
                OFFSET -0.000000 -48.322342 0.000000
                CHANNELS 3 Zrotation Xrotation Yrotation
                JOINT RightToeBase
                {
                    OFFSET -0.000000 -6.741791 15.557981
                    CHANNELS 3 Zrotation Xrotation Yrotation
                    End Site
                    {
                        OFFSET -0.000000 0.000000 4.148795
                    }
                }
            }
        }
    }
}
MOTION
Frames:    5
Frame Time:    0.008333
61.622650    140.682739    81.838776    -1.790174    0.899928    92.200928    -0.891622    -7.094151    1.326161    2.283464    -4.987619    1.480923    -1.770749    29.508476    -1.280330    -1.086384    7.831237    -1.645615    13.619885    -0.577376    -9.040894    -8.952881    -4.250036    -1.100548    -2.335970    -4.882820    26.698856    -0.233237    -4.315893    -7.037496    -18.634291    3.003191    -10.698349    20.176756    -1.962629    17.149918    3.426908    0.930976    -18.819166    -1.249884    1.545815    -4.294197    1.794533    -0.111839    5.067504    -0.745502    6.988620    1.532480    4.495630    -10.999361    8.834086    0.000000    0.000000    0.000000    0.752245    2.063578    -2.693825    2.292944    3.580613    -1.465403    2.571248    -11.274442    -7.334073    0.000000    0.000000    0.000000    
61.646103    140.673950    81.799065    -1.775489    0.855076    92.227470    -0.856627    -7.101993    1.327240    2.254852    -4.964049    1.478127    -1.655653    29.406288    -1.313702    -1.142194    7.998359    -1.666167    13.618653    -0.557697    -9.081848    -8.955921    -4.263221    -1.115006    -2.421558    -4.840142    26.595530    -0.232794    -4.255716    -6.820596    -18.614653    3.001230    -10.709279    20.214191    -1.503612    17.103235    3.284262    0.762993    -18.764555    -1.103453    1.347366    -4.321074    1.804233    -0.067593    5.065554    -0.732549    6.955514    1.550685    4.464626    -10.977906    8.792852    0.000000    0.000000    0.000000    0.775824    2.075331    -2.730541    2.293180    3.610572    -1.434670    2.543211    -11.300849    -7.346296    0.000000    0.000000    0.000000    
61.677872    140.667374    81.766174    -1.742709    0.807528    92.246101    -0.858467    -7.085721    1.307537    2.312950    -4.982299    1.461349    -1.649181    29.407957    -1.314961    -1.166412    8.085985    -1.667524    13.520820    -0.544292    -9.072691    -8.918103    -4.187696    -1.154932    -2.491026    -4.794911    26.563442    -0.440122    -4.182219    -6.878878    -18.559904    2.972791    -10.702957    20.163969    -1.589848    17.121996    3.390855    0.831583    -18.813351    -1.112314    1.434698    -4.249136    1.830254    0.003257    5.057240    -0.733095    6.923615    1.557072    4.475188    -10.981579    8.780216    0.000000    0.000000    0.000000    0.811945    2.106500    -2.753122    2.288108    3.654883    -1.424464    2.513400    -11.347986    -7.364943    0.000000    0.000000    0.000000    
61.687584    140.654114    81.737206    -1.756402    0.726329    92.275726    -0.831414    -7.077614    1.281033    2.385809    -5.045259    1.437587    -1.641250    29.393084    -1.324539    -1.237735    8.221360    -1.679953    13.382935    -0.472731    -9.070189    -8.821202    -4.197423    -1.220094    -2.577662    -4.729208    26.639746    -0.733898    -4.075860    -7.007594    -18.647013    3.050636    -10.645814    20.301609    -1.836298    17.059887    3.467187    0.967196    -18.729734    -1.021270    1.577356    -4.294020    1.900960    -0.013432    5.048954    -0.737916    6.949111    1.549775    4.487554    -11.053589    8.748487    0.000000    0.000000    0.000000    0.880354    2.058709    -2.750255    2.262620    3.735495    -1.360881    2.491297    -11.410699    -7.415900    0.000000    0.000000    0.000000    
61.707027    140.644653    81.706734    -1.752670    0.684202    92.279457    -0.861296    -7.081815    1.281424    2.461411    -5.045846    1.443233    -1.617760    29.348663    -1.361948    -1.239902    8.320580    -1.714224    13.325559    -0.491914    -9.074076    -8.781974    -4.238896    -1.310376    -2.651401    -4.646243    26.743134    -0.751268    -3.969506    -7.360034    -18.672409    3.067275    -10.676098    20.331955    -1.714914    17.151371    3.494681    0.937084    -18.871786    -0.917408    1.551762    -4.224865    1.928315    0.009228    5.060591    -0.737695    6.952343    1.574987    4.464668    -11.085976    8.705012    0.000000    0.000000    0.000000    0.911671    2.032223    -2.730527    2.246084    3.825882    -1.315021    2.498083    -11.473146    -7.433806    0.000000    0.000000    0.000000    
